<svg width="468" height="384" viewBox="0 0 468 384" fill="none" xmlns="http://www.w3.org/2000/svg">
<path d="M375.691 264.308C374.961 264.239 374.057 264.18 373.68 264.888C373.319 265.564 373.732 266.458 373.538 267.217C373.273 268.253 372.07 268.518 371.122 268.376C370.174 268.235 369.148 267.898 368.309 268.413C367.883 268.741 367.563 269.216 367.396 269.767C367.23 270.318 367.227 270.915 367.387 271.468C367.73 272.566 368.285 273.564 369.013 274.391C370.255 276.156 371.67 277.758 373.231 279.164C376.254 281.68 380.348 282.893 382.251 286.545C382.52 287.253 382.933 287.88 383.456 288.374C384.37 289.027 385.562 288.53 386.546 288.023L389.994 286.246C390.616 285.993 391.17 285.568 391.607 285.009C392.395 283.803 391.911 282.089 391.249 280.79C390.588 279.491 389.741 278.146 389.883 276.657C390.136 274.001 393.163 272.986 394.408 270.714C395.663 268.424 394.846 265.473 394.991 262.785C395.16 259.643 396.911 255.555 394.094 253.207C391.7 251.211 389.412 253.055 387.693 255.258C384.068 259.904 382.354 264.936 375.691 264.308Z" fill="#343434"/>
<path d="M396.626 217.352C397.803 219.894 400.258 221.412 401.542 223.888C402.933 226.572 402.775 230.04 404.285 232.642C405.834 235.311 408.951 236.728 409.819 239.764C410.768 243.079 408.616 247.107 410.331 250.004C410.651 250.477 411.055 250.87 411.516 251.158C411.978 251.447 412.488 251.624 413.013 251.678C413.539 251.733 414.069 251.663 414.569 251.475C415.07 251.286 415.53 250.983 415.921 250.583C416.644 249.695 417.031 248.523 417 247.318C416.968 246.112 416.52 244.969 415.752 244.13C414.736 243.086 413.278 242.635 412.43 241.415C411.988 240.711 411.694 239.903 411.57 239.052C411.108 236.598 411.182 234.053 411.785 231.638C412.012 231.026 412.07 230.35 411.951 229.699C411.569 228.448 410.067 228.359 409.012 227.778C406.617 226.46 406.675 222.647 407.094 219.678C406.815 221.655 400.573 218.293 399.919 217.174C398.621 214.95 399.327 210.659 399.07 208.202C396.267 209.725 395.186 214.243 396.626 217.352Z" fill="#343434"/>
<path d="M333.741 256.475C332.589 255.021 330.853 253.499 329.309 254.376C328.13 255.045 327.806 256.884 328.268 258.278C328.831 259.632 329.697 260.797 330.781 261.658C334 264.652 337.466 267.355 340.274 270.835C345.3 277.064 347.962 285.469 353.427 291.208C354.526 292.538 355.98 293.426 357.569 293.736C359.161 293.903 360.949 292.753 361.132 290.961C361.283 289.485 360.37 288.164 359.479 287.07C357.356 284.466 355.032 282.068 353.027 279.347C352.102 278.301 351.52 276.931 351.378 275.462C351.368 273.997 352.553 272.463 353.812 272.826C352.281 272.385 351.145 269.508 348.898 268.967C347.021 268.515 346.566 269.826 344.332 268.745C340.069 266.683 336.725 260.244 333.741 256.475Z" fill="#343434"/>
<path d="M433.89 114.828C432.668 114.419 431.466 113.934 430.289 113.378C427.125 112.306 422.938 114.93 423.36 118.626C423.64 121.082 425.666 122.738 426.785 124.868C428.445 128.027 428.002 132.034 427.13 135.572C426.916 136.667 426.509 137.703 425.933 138.617C425.128 139.582 424.165 140.364 423.097 140.918C418.823 143.621 415.055 147.232 411.999 151.552C411.667 151.951 411.435 152.443 411.329 152.977C411.178 154.225 412.29 155.134 412.919 156.175C414.316 158.487 413.306 161.599 413.444 164.392C413.423 164.787 413.491 165.182 413.643 165.539C413.795 165.895 414.025 166.202 414.312 166.431C415.154 166.913 416.151 166.094 416.608 165.161C418.122 162.067 416.981 157.1 419.822 155.608C420.359 155.326 421.011 155.207 421.369 154.674C421.938 153.83 421.389 152.579 421.678 151.569C422.11 150.054 423.948 149.986 425.359 150.053C427.789 150.167 430.218 149.803 432.536 148.975C433.446 148.731 434.272 148.192 434.912 147.423C435.761 146.228 435.686 144.528 435.517 143.008C434.667 135.432 432.539 128.109 429.248 121.434C431.743 121.794 434.458 122.105 436.612 120.638C437.817 119.817 439.263 117.361 438.665 115.689C437.719 113.045 436.011 115.27 433.89 114.828Z" fill="#343434"/>
<path d="M138.239 36.1676C140.312 38.6501 142.634 41.2821 145.633 41.7148C150.93 42.4791 154.738 36.3014 157.162 30.9353C157.252 32.3033 157.811 33.5778 158.721 34.4878C159.632 35.3979 160.82 35.8715 162.035 35.8081C163.343 35.56 164.591 35.0097 165.7 34.1919C176.195 27.7234 187.949 24.2961 199.908 24.2179C199.793 23.1961 200.018 22.1626 200.538 21.3167C201.059 20.4708 201.84 19.8725 202.729 19.6373C205.16 19.0936 207.35 21.4646 208.523 23.9276C209.696 26.3906 210.428 29.2455 212.291 31.0891C214.155 32.9327 217.762 32.8524 218.498 30.1826C219.205 27.6196 216.838 25.4338 214.871 23.9227C212.904 22.4117 210.831 19.6149 212.156 17.3849C222.204 14.8762 232.314 12.358 242.596 11.8593C244.346 11.9281 246.09 11.5892 247.719 10.8638C249.287 9.9959 250.534 8.02585 250.112 6.11409C247.868 6.709 245.518 6.53673 243.362 5.61924C241.205 4.70176 239.34 3.08063 238.003 0.96258C252.27 -0.365303 267.444 -1.49714 280.087 6.07453C281.605 9.74825 273.872 12.8048 275.941 16.1183C276.601 17.175 277.923 17.299 279.069 17.323C287.855 17.507 296.691 17.6874 305.378 16.1912C308.553 15.6445 311.759 14.8726 314.947 15.316C320.255 16.0545 324.796 20.0497 330.019 21.3523C332.144 21.8824 334.528 21.9004 336.32 20.5059C338.112 19.1113 338.882 15.9359 337.413 14.1231C342.331 8.68709 350.492 10.0344 356.979 12.6368C363.467 15.2393 369.613 19.4363 376.479 20.0164C381.402 20.4323 386.394 18.9386 391.26 19.888C394.317 20.4847 397.162 22.0188 400.15 22.9613C405.802 24.7438 411.78 24.3676 417.648 24.4533C432.619 24.6808 447.427 27.9997 461.338 34.2455C463.148 34.91 464.806 36.0149 466.195 37.4821C467.49 39.0455 468.15 41.4751 467.28 43.3759L452.905 41.0068C454.259 44.0141 457.763 44.5266 460.609 45.564C463.454 46.6015 466.405 50.1458 464.695 52.9129C461.611 51.8057 458.818 55.2825 457.26 58.4815C455.703 61.6804 453.805 65.5115 450.574 65.7064C447.68 65.8809 444.181 63.1022 442.295 65.5832C444.901 69.2905 447.132 73.3137 448.947 77.5783C450.811 81.9564 452.138 87.4731 449.619 91.4121C449.223 92.1153 448.622 92.641 447.92 92.8987C445.863 93.486 444.527 90.6481 443.052 88.928C441.193 86.7605 438.382 86.1466 435.866 85.1301C433.349 84.1136 430.697 82.1138 430.5 79.1066C430.378 77.2356 431.253 75.4963 431.899 73.7671C432.983 70.8523 433.457 67.695 433.284 64.5401C433.143 62.0019 432.512 59.3617 430.896 57.5883C429.28 55.8149 426.49 55.2523 424.755 56.8765C423.945 57.6344 423.297 58.8467 422.245 58.892C420.388 58.9722 418.962 55.3194 417.467 56.5663C417.642 57.8949 417.398 59.2507 416.777 60.3968C412.317 64.7714 405.466 62.9207 399.717 64.4661C396.983 65.3485 394.366 66.6378 391.934 68.2999C391.024 68.7387 390.25 69.4716 389.709 70.4062C388.992 71.9792 389.783 73.9938 391.048 75.0397C392.389 75.9677 393.897 76.548 395.461 76.7388C402.47 78.2361 409.581 80.5539 415.115 85.6317C420.649 90.7095 424.278 99.1034 422.527 106.903L408.704 92.0066C409.229 98.2614 409.527 104.533 409.598 110.823C409.688 112.051 409.538 113.286 409.16 114.442C408.175 116.897 405.504 117.723 403.164 118.265C402.513 118.404 401.895 118.698 401.352 119.125C400.809 119.553 400.352 120.106 400.011 120.747C399.671 121.388 399.454 122.103 399.376 122.845C399.298 123.587 399.36 124.339 399.558 125.052C400.389 128.109 402.463 130.493 404.361 132.868C406.259 135.242 408.127 137.941 408.376 141.127C408.624 144.312 406.494 147.902 403.666 147.681C401.522 147.513 399.931 145.348 399.017 143.154C398.102 140.961 397.558 138.517 396.184 136.653C392.026 131.012 382.685 133.429 378.959 127.415C378.009 128.63 377.351 130.098 377.046 131.681C376.741 133.264 376.8 134.908 377.217 136.458C378.95 135.235 381.323 136.372 382.625 138.15C383.927 139.928 384.541 142.208 385.564 144.205C386.944 146.9 389.14 149.289 389.333 152.394C389.282 153.568 389.299 154.744 389.385 155.916C389.727 157.797 391.137 159.148 392.114 160.72C394.389 164.379 394.276 169.405 392.81 173.556C391.345 177.707 388.711 181.176 386.103 184.539C381.547 190.412 376.898 196.252 371.497 201.13C369.955 202.522 368.311 203.89 367.351 205.836C366.391 207.782 366.342 210.514 367.817 211.994C366.761 212.054 364.868 212.639 363.813 212.699C363.442 207.923 363.361 203.125 363.572 198.337C359.407 196.081 354.922 202.122 355.46 207.298C355.997 212.474 359.316 216.627 361.679 221.105C363.407 224.38 364.692 228.199 364.115 231.953C363.538 235.708 360.566 239.172 357.2 238.841C351.846 238.314 349.607 229.645 344.305 228.653C343.837 228.529 343.347 228.584 342.91 228.809C342.123 229.296 341.986 230.484 341.942 231.496C341.725 236.459 341.537 241.62 343.255 246.197C345.768 252.892 352.261 258.515 350.899 265.621C343.562 261.774 339.747 252.494 338.015 243.58C336.283 234.666 335.995 225.308 332.89 216.881C330.533 220.289 325.577 217.472 323.424 213.897C321.381 210.507 320.124 206.586 318.143 203.151C316.162 199.715 313.127 196.639 309.497 196.45C305.692 196.252 302.391 199.198 299.489 201.981C297.102 204.269 294.652 206.648 293.257 209.811C291.227 214.415 291.758 219.841 291.66 224.982C291.554 230.539 290.51 236.402 287.152 240.47C283.794 244.538 277.596 245.955 273.893 242.289C271.959 240.375 271.023 237.515 270.189 234.77C266.169 221.537 262.821 208.057 260.162 194.394C259.539 197.512 257.112 201.532 254.792 199.695C254.272 199.201 253.85 198.588 253.555 197.897C249.229 189.627 241.218 184.667 233.123 181.693C225.029 178.718 216.513 177.331 208.508 174.062C204.022 172.23 199.738 169.822 195.738 166.888C194.719 168.577 194.124 170.546 194.016 172.586C193.908 174.626 194.291 176.661 195.125 178.475C196.9 182.021 200.918 184.073 204.358 182.833C206.135 182.193 207.636 180.801 209.4 180.114C211.164 179.426 213.531 179.764 214.302 181.68C215.04 183.515 213.924 185.734 214.478 187.649C215.321 190.566 219.222 190.791 220.586 193.446C221.6 195.421 220.765 198.044 219.316 199.637C217.867 201.231 215.934 202.105 214.165 203.215C208.426 206.814 204.344 212.959 199.329 217.74C194.313 222.521 187.236 226.012 181.258 222.945C182.683 214.807 174.088 208.832 172.507 200.731C171.987 198.064 172.256 195.232 171.513 192.633C170.438 188.871 167.478 186.284 165.051 183.433C162.106 179.937 159.812 175.812 158.304 171.3C156.796 166.788 156.104 161.981 156.27 157.163C156.401 153.815 156.947 150.412 156.27 147.148C155.594 143.885 153.198 140.726 150.23 140.874C143.45 141.212 134.909 141.781 131.352 135.262C130.082 132.935 129.529 129.527 131.365 127.745C132.66 126.487 134.571 126.606 136.272 126.795L151.548 128.49C155.121 128.886 158.983 129.213 162.049 127.106C165.115 125 166.444 119.407 163.605 116.929C161.53 115.118 157.814 115.216 157.211 112.336C156.709 109.938 159.062 107.217 157.791 105.213C156.88 103.776 154.831 104.175 153.589 105.252C152.347 106.329 151.446 107.905 150.057 108.72C147.619 110.151 144.707 108.789 142.084 107.864C139.462 106.938 135.946 106.86 134.674 109.607C133.251 112.68 135.936 116.706 134.524 119.785C132.657 123.855 126.336 121.538 123.714 125.039C120.706 129.057 125.761 135.048 124.747 140.181C123.451 140.905 122.012 141.237 120.569 141.145C119.126 141.054 117.729 140.542 116.513 139.659C115.318 138.742 114.366 137.477 113.757 135.999C113.149 134.52 112.907 132.883 113.058 131.261C113.309 128.952 114.376 126.595 113.661 124.413C113.083 122.649 111.512 121.599 110.053 120.689L95.2077 111.436C93.8294 114.32 95.5718 117.895 97.751 120.061C99.9302 122.227 102.66 123.859 104.091 126.709C104.997 128.684 105.2 130.975 104.659 133.113C104.118 135.251 102.873 137.075 101.18 138.214C100.968 138.379 100.726 138.49 100.472 138.54C100.218 138.59 99.9578 138.578 99.7085 138.503C99.4717 138.346 99.2652 138.137 99.1013 137.889C98.9373 137.64 98.8193 137.357 98.7542 137.056C96.1349 129.495 92.2024 122.041 85.9152 118.092C79.628 114.143 70.5939 114.954 66.471 121.607C65.4917 123.188 64.8344 124.989 63.9814 126.659C59.4491 135.536 49.7326 139.739 40.6546 139.464C39.7666 139.52 38.8831 139.285 38.1099 138.79C36.6427 137.647 36.7088 135.222 36.9334 133.226L37.8863 124.76C38.0777 123.059 38.355 121.18 39.548 120.119C41.2298 118.623 43.6558 119.567 45.7975 119.532C47.4201 119.446 48.9801 118.8 50.266 117.681C51.5519 116.561 52.5016 115.023 52.9863 113.275C53.4189 111.509 53.4162 109.643 52.9783 107.879C52.5404 106.115 51.684 104.519 50.5013 103.263C49.5197 102.223 48.2022 100.917 48.7206 99.5147C48.9275 99.1269 49.2072 98.7949 49.54 98.5421C49.8729 98.2894 50.2507 98.1219 50.6471 98.0515C54.4941 96.7914 58.559 96.4611 62.3419 94.9744C66.1248 93.4876 69.7934 90.4457 70.6893 86.0417C70.9638 84.6921 71.0888 83.0572 72.1636 82.3881C72.7029 82.1313 73.2821 81.9978 73.8674 81.9955C75.9183 81.6664 77.7857 80.4833 79.1019 78.679C80.4182 76.8747 81.0878 74.5801 80.9791 72.2468C82.7921 70.8179 85.3321 71.869 87.086 73.3887C88.8399 74.9084 90.3883 76.9163 92.5224 77.5714C96.4994 78.7923 100.343 74.8205 104.465 74.8021C106.198 74.7944 107.992 75.4856 109.623 74.8228C111.276 74.1509 112.263 72.2949 113.532 70.9236C114.801 69.5524 117.027 68.7161 118.198 70.1932L117.201 61.8585C119.21 62.4309 121.304 62.512 123.343 62.0961C125.383 61.6803 127.319 60.7773 129.023 59.4476L116.13 54.5338C115.681 54.4074 115.267 54.1576 114.924 53.8067C113.987 52.6682 114.918 50.8941 115.68 49.5999C117.504 46.5039 117.81 41.4041 114.811 39.8627C112.764 38.8106 110.415 40.0735 108.45 41.309L99.0398 47.2274C98.7407 49.245 100.928 50.3884 102.284 51.7475C103.104 52.5697 103.684 53.6525 103.949 54.8536C104.213 56.0548 104.15 57.3181 103.766 58.4776C103.382 59.6371 102.697 60.6386 101.799 61.3505C100.902 62.0625 99.834 62.4516 98.7369 62.4668C99.3566 63.3755 99.7871 64.4298 99.9966 65.5516C100.206 66.6734 100.189 67.8341 99.9472 68.9475L93.6155 69.4612C92.9049 69.6224 92.1666 69.4599 91.5619 69.009C90.8847 68.3307 90.9765 67.1419 90.8196 66.1358C90.4407 63.7075 88.3326 62.0055 86.1811 61.5691C84.0296 61.1327 81.8286 61.6921 79.6981 62.2444C78.7934 62.6116 77.8 62.5857 76.9114 62.1719C76.4018 61.7985 76.0146 61.2472 75.8089 60.6023C74.8748 58.0479 75.7479 55.0455 77.248 52.861C78.7481 50.6766 80.8017 49.0797 82.646 47.2611C87.0566 42.8962 90.297 37.2272 92.0014 30.8945C95.487 29.2472 99.0956 27.0092 102.581 25.3619C107.955 22.2931 113.981 20.9762 119.982 21.5591L131.787 21.8134C135.281 21.8887 138.871 21.9852 142.102 23.488C145.334 24.9908 148.174 28.2411 148.397 32.1757C148.464 32.6211 148.43 33.0785 148.298 33.505C148.165 33.9315 147.939 34.313 147.64 34.6138C147.184 34.8947 146.667 35.0261 146.147 34.9932C142.888 35.1224 141.498 36.0384 138.239 36.1676Z" fill="#343434"/>
<path d="M128.75 100.548C134.188 100.548 138.596 95.5754 138.596 89.4419C138.596 83.3085 134.188 78.3363 128.75 78.3363C123.312 78.3363 118.904 83.3085 118.904 89.4419C118.904 95.5754 123.312 100.548 128.75 100.548Z" fill="#0052B4"/>
<path d="M90.6399 103.811C96.0778 103.811 100.486 98.839 100.486 92.7055C100.486 86.572 96.0778 81.5999 90.6399 81.5999C85.202 81.5999 80.7937 86.572 80.7937 92.7055C80.7937 98.839 85.202 103.811 90.6399 103.811Z" fill="#0052B4"/>
<path d="M357.411 177.242C362.849 177.242 367.258 172.27 367.258 166.136C367.258 160.003 362.849 155.03 357.411 155.03C351.974 155.03 347.565 160.003 347.565 166.136C347.565 172.27 351.974 177.242 357.411 177.242Z" fill="#0052B4"/>
<path d="M118.079 48.3302C123.517 48.3302 127.925 43.358 127.925 37.2246C127.925 31.0911 123.517 26.119 118.079 26.119C112.641 26.119 108.233 31.0911 108.233 37.2246C108.233 43.358 112.641 48.3302 118.079 48.3302Z" fill="#0052B4"/>
<path d="M119.666 37.5415C125.256 42.9808 135.672 60.7129 132.624 88.127" stroke="#0052B4"/>
<path d="M89.9401 94.6541C95.2755 83.2316 110.367 66.2609 128.05 89.7587" stroke="#0052B4"/>
<path d="M128.813 90.5747C179.626 64.4661 296.65 43.0896 358.236 166.453" stroke="#0052B4"/>
<path d="M118.142 36.7256C105.184 39.7172 81.4034 55.8175 89.9401 96.286" stroke="#0052B4"/>
<path d="M108.53 164.629C108.846 166.249 109.156 167.955 108.601 169.516C108.045 171.076 106.298 172.379 104.647 171.901C103.367 171.53 102.627 170.3 101.718 169.361C96.6602 164.143 85.25 167.164 82.1258 160.708C80.8508 158.074 81.7173 154.917 80.8476 152.136C80.2989 150.528 79.2072 149.14 77.7438 148.19C76.2804 147.24 74.5283 146.781 72.7626 146.886C71.1521 147.108 69.5845 147.556 68.11 148.214C58.2322 151.995 47.8621 154.473 37.285 155.582C35.2748 155.699 33.2865 156.045 31.3621 156.612C27.019 158.117 24.0515 161.965 21.9397 165.892C19.8279 169.819 18.2688 174.071 15.4375 177.559C12.4619 181.226 8.29213 183.794 4.40258 186.571C2.90423 187.494 1.65661 188.744 0.762326 190.217C-0.0809027 191.872 -0.0333457 193.796 0.0321075 195.636L0.827057 217.976C0.929308 220.849 1.05769 223.825 2.40327 226.397C4.08355 229.608 7.40288 231.711 9.70562 234.547C12.0556 237.462 13.2797 241.064 13.1709 244.742C13.1219 246.221 12.9681 247.97 14.1732 248.899C14.9063 249.354 15.7641 249.589 16.6377 249.577L48.2556 252.05C53.8174 252.485 59.9811 253.2 63.6123 257.25C65.3261 259.162 66.7027 261.91 69.3277 262.115C70.4536 262.203 71.5492 261.762 72.6754 261.676C75.5166 261.461 78.0126 263.522 79.5879 265.793C81.972 269.253 83.0542 273.385 82.6568 277.511C82.3985 280.1 81.5584 282.618 81.3773 285.214C80.6882 295.09 89.4483 303.671 89.6181 313.568C89.718 319.39 86.8265 324.829 84.0074 329.99C88.5572 336.578 84.8316 345.351 86.643 353.052C88.3615 360.358 94.7356 366.078 96.3239 373.412C97.051 376.769 97.0931 380.9 100.19 382.63C101.55 383.263 103.056 383.551 104.566 383.467C113.67 383.57 122.671 381.611 130.832 377.752C134.662 375.935 138.631 373.223 139.3 369.187C139.839 365.932 138.112 362.291 139.87 359.456C141.941 356.115 147.248 356.379 150.296 353.81C155.24 349.642 151.385 341.693 153.388 335.69C155.189 330.294 161.388 327.427 164.461 322.584C165.67 320.501 166.538 318.254 167.034 315.919C168.441 310.34 169.317 304.65 169.652 298.92C169.733 295.438 170.002 291.963 170.456 288.508C173.769 268.836 194.117 255.664 200.723 236.766C201.354 234.961 201.65 232.557 199.97 231.536C198.974 231.081 197.844 230.968 196.771 231.216L182.196 232.972C180.386 233.19 178.467 233.394 176.804 232.675C175.142 231.957 173.95 229.947 174.832 228.42C177.308 224.134 172.215 218.718 169.953 214.326C163.861 202.5 156.605 191.255 148.285 180.741C147.753 180.2 147.419 179.508 147.335 178.77L151.472 178.901C150.076 174.112 147.771 168.872 142.903 167.12C140.16 166.133 137.123 166.474 134.196 166.627C125.813 167.065 116.826 165.855 108.53 164.629Z" fill="#343434"/>
</svg>
